<svg width="129" height="128" viewBox="0 0 129 128" fill="none" xmlns="http://www.w3.org/2000/svg">
<path opacity="0.964" fill-rule="evenodd" clip-rule="evenodd" d="M84.125 7.875C85.2483 13.374 87.54 18.374 91 22.875C95.179 27.4453 100.304 30.4453 106.375 31.875C93.9178 35.166 86.5845 43.166 84.375 55.875C82.1655 43.166 74.8322 35.166 62.375 31.875C74.8827 28.6182 82.1328 20.6182 84.125 7.875Z" fill="#FB568A"/>
<path opacity="0.981" fill-rule="evenodd" clip-rule="evenodd" d="M48.125 23.875C49.524 32.2762 52.399 40.1927 56.75 47.625C64.2695 59.2595 74.8112 66.6763 88.375 69.875C69.0305 74.9277 56.4055 87.011 50.5 106.125C49.594 109.332 48.8857 112.582 48.375 115.875C46.504 101.338 40.0872 89.296 29.125 79.75C22.9389 74.991 16.0222 71.6992 8.375 69.875C28.8183 64.39 41.6932 51.39 47 30.875C47.6177 28.578 47.9927 26.2448 48.125 23.875Z" fill="#FCDA45"/>
<path opacity="0.964" fill-rule="evenodd" clip-rule="evenodd" d="M98.125 71.875C99.2482 77.374 101.54 82.374 105 86.875C109.179 91.4452 114.304 94.4452 120.375 95.875C107.918 99.166 100.584 107.166 98.375 119.875C96.1655 107.166 88.8322 99.166 76.375 95.875C88.8827 92.6182 96.1327 84.6182 98.125 71.875Z" fill="#5BB3FB"/>
</svg>
